<svg xmlns="http://www.w3.org/2000/svg" xmlns:xlink="http://www.w3.org/1999/xlink" width="500" zoomAndPan="magnify" viewBox="0 0 375 374.999991" height="500" preserveAspectRatio="xMidYMid meet" version="1.0"><defs><g/><clipPath id="d60178d5d0"><rect x="0" width="342" y="0" height="146"/></clipPath><clipPath id="dfd6b1af8a"><path d="M 24.574219 63 L 198 63 L 198 184 L 24.574219 184 Z M 24.574219 63 " clip-rule="nonzero"/></clipPath><clipPath id="01ce78b172"><path d="M 183 62.441406 L 356.074219 62.441406 L 356.074219 186 L 183 186 Z M 183 62.441406 " clip-rule="nonzero"/></clipPath></defs><g transform="matrix(1, 0, 0, 1, 18, 160)"><g clip-path="url(#d60178d5d0)"><g fill="#000000" fill-opacity="1"><g transform="translate(0.750003, 105.817912)"><g><path d="M 63.796875 -50.859375 C 63.796875 -46.515625 62.796875 -42.539062 60.796875 -38.9375 C 58.804688 -35.34375 55.742188 -32.441406 51.609375 -30.234375 C 47.484375 -28.023438 42.351562 -26.921875 36.21875 -26.921875 L 24.890625 -26.921875 L 24.890625 0 L 6.625 0 L 6.625 -75.015625 L 36.21875 -75.015625 C 42.207031 -75.015625 47.265625 -73.976562 51.390625 -71.90625 C 55.523438 -69.84375 58.625 -66.992188 60.6875 -63.359375 C 62.757812 -59.734375 63.796875 -55.566406 63.796875 -50.859375 Z M 34.84375 -41.46875 C 38.332031 -41.46875 40.929688 -42.285156 42.640625 -43.921875 C 44.347656 -45.554688 45.203125 -47.867188 45.203125 -50.859375 C 45.203125 -53.859375 44.347656 -56.175781 42.640625 -57.8125 C 40.929688 -59.445312 38.332031 -60.265625 34.84375 -60.265625 L 24.890625 -60.265625 L 24.890625 -41.46875 Z M 34.84375 -41.46875 "/></g></g></g><g fill="#000000" fill-opacity="1"><g transform="translate(67.42523, 105.817912)"><g><path d="M 53.328125 -13.25 L 25.328125 -13.25 L 20.84375 0 L 1.703125 0 L 28.859375 -75.015625 L 50.015625 -75.015625 L 77.15625 0 L 57.8125 0 Z M 48.625 -27.359375 L 39.328125 -54.8125 L 30.140625 -27.359375 Z M 48.625 -27.359375 "/></g></g></g><g fill="#000000" fill-opacity="1"><g transform="translate(146.174613, 105.817912)"><g><path d="M 24.578125 -75.015625 L 24.578125 -30.140625 C 24.578125 -25.648438 25.679688 -22.191406 27.890625 -19.765625 C 30.097656 -17.347656 33.335938 -16.140625 37.609375 -16.140625 C 41.890625 -16.140625 45.164062 -17.347656 47.4375 -19.765625 C 49.71875 -22.191406 50.859375 -25.648438 50.859375 -30.140625 L 50.859375 -75.015625 L 69.140625 -75.015625 L 69.140625 -30.234375 C 69.140625 -23.546875 67.710938 -17.882812 64.859375 -13.25 C 62.015625 -8.625 58.1875 -5.132812 53.375 -2.78125 C 48.5625 -0.425781 43.203125 0.75 37.296875 0.75 C 31.378906 0.75 26.085938 -0.40625 21.421875 -2.71875 C 16.753906 -5.039062 13.066406 -8.535156 10.359375 -13.203125 C 7.660156 -17.867188 6.3125 -23.546875 6.3125 -30.234375 L 6.3125 -75.015625 Z M 24.578125 -75.015625 "/></g></g></g><g fill="#000000" fill-opacity="1"><g transform="translate(221.504793, 105.817912)"><g><path d="M 24.890625 -14.109375 L 48.828125 -14.109375 L 48.828125 0 L 6.625 0 L 6.625 -75.015625 L 24.890625 -75.015625 Z M 24.890625 -14.109375 "/></g></g></g><g fill="#000000" fill-opacity="1"><g transform="translate(272.472845, 105.817912)"><g><path d="M 33.765625 0.75 C 28.285156 0.75 23.367188 -0.140625 19.015625 -1.921875 C 14.671875 -3.703125 11.195312 -6.335938 8.59375 -9.828125 C 6 -13.316406 4.628906 -17.519531 4.484375 -22.4375 L 23.9375 -22.4375 C 24.21875 -19.65625 25.175781 -17.535156 26.8125 -16.078125 C 28.457031 -14.617188 30.597656 -13.890625 33.234375 -13.890625 C 35.941406 -13.890625 38.078125 -14.507812 39.640625 -15.75 C 41.210938 -17 42 -18.726562 42 -20.9375 C 42 -22.789062 41.375 -24.320312 40.125 -25.53125 C 38.875 -26.75 37.34375 -27.75 35.53125 -28.53125 C 33.71875 -29.3125 31.132812 -30.203125 27.78125 -31.203125 C 22.9375 -32.703125 18.984375 -34.195312 15.921875 -35.6875 C 12.859375 -37.1875 10.222656 -39.394531 8.015625 -42.3125 C 5.804688 -45.238281 4.703125 -49.050781 4.703125 -53.75 C 4.703125 -60.726562 7.226562 -66.191406 12.28125 -70.140625 C 17.34375 -74.097656 23.9375 -76.078125 32.0625 -76.078125 C 40.320312 -76.078125 46.976562 -74.097656 52.03125 -70.140625 C 57.09375 -66.191406 59.800781 -60.691406 60.15625 -53.640625 L 40.390625 -53.640625 C 40.242188 -56.066406 39.351562 -57.972656 37.71875 -59.359375 C 36.082031 -60.742188 33.984375 -61.4375 31.421875 -61.4375 C 29.210938 -61.4375 27.429688 -60.847656 26.078125 -59.671875 C 24.722656 -58.503906 24.046875 -56.816406 24.046875 -54.609375 C 24.046875 -52.179688 25.179688 -50.289062 27.453125 -48.9375 C 29.734375 -47.582031 33.300781 -46.125 38.15625 -44.5625 C 43 -42.925781 46.929688 -41.359375 49.953125 -39.859375 C 52.984375 -38.359375 55.601562 -36.179688 57.8125 -33.328125 C 60.019531 -30.484375 61.125 -26.816406 61.125 -22.328125 C 61.125 -18.054688 60.035156 -14.175781 57.859375 -10.6875 C 55.691406 -7.195312 52.539062 -4.414062 48.40625 -2.34375 C 44.269531 -0.28125 39.390625 0.75 33.765625 0.75 Z M 33.765625 0.75 "/></g></g></g></g></g><g clip-path="url(#dfd6b1af8a)"><path fill="#000000" d="M 30.136719 168.9375 L 184.59375 67.058594 L 190.136719 63.402344 L 197.433594 74.515625 L 191.890625 78.171875 L 37.429688 180.046875 L 31.886719 183.703125 L 24.59375 172.59375 Z M 30.136719 168.9375 " fill-opacity="1" fill-rule="nonzero"/></g><g clip-path="url(#01ce78b172)"><path fill="#000000" d="M 343.152344 182.246094 L 188.992188 77.429688 L 183.503906 73.699219 L 190.953125 62.691406 L 196.445312 66.425781 L 350.601562 171.238281 L 356.09375 174.972656 L 348.640625 185.980469 Z M 343.152344 182.246094 " fill-opacity="1" fill-rule="nonzero"/></g><path fill="#000000" d="M 235.703125 102.441406 L 235.703125 66.804688 L 248.972656 66.804688 L 248.972656 109.09375 L 235.703125 109.09375 Z M 235.703125 102.441406 " fill-opacity="1" fill-rule="nonzero"/><path fill="#000000" d="M 277.761719 79.378906 L 242.65625 79.382812 L 236.019531 79.382812 L 236.019531 66.082031 L 242.65625 66.082031 L 277.761719 66.078125 L 284.398438 66.078125 L 284.398438 79.378906 Z M 277.761719 79.378906 " fill-opacity="1" fill-rule="nonzero"/><path fill="#000000" d="M 272.210938 66.328125 L 285.480469 66.328125 L 285.480469 130.53125 L 272.210938 130.53125 Z M 272.210938 66.328125 " fill-opacity="1" fill-rule="nonzero"/><g fill="#000000" fill-opacity="1"><g transform="translate(24.572685, 305.009073)"><g><path d="M 19.765625 -20.703125 L 19.765625 0 L 14.71875 0 L 14.71875 -8.53125 L 6.875 -8.53125 L 6.875 0 L 1.828125 0 L 1.828125 -20.703125 L 6.875 -20.703125 L 6.875 -12.59375 L 14.71875 -12.59375 L 14.71875 -20.703125 Z M 19.765625 -20.703125 "/></g></g></g><g fill="#000000" fill-opacity="1"><g transform="translate(46.134314, 305.009073)"><g><path d="M 11.625 0.203125 C 9.675781 0.203125 7.890625 -0.242188 6.265625 -1.140625 C 4.640625 -2.046875 3.347656 -3.3125 2.390625 -4.9375 C 1.441406 -6.5625 0.96875 -8.382812 0.96875 -10.40625 C 0.96875 -12.4375 1.441406 -14.257812 2.390625 -15.875 C 3.347656 -17.488281 4.640625 -18.742188 6.265625 -19.640625 C 7.890625 -20.546875 9.675781 -21 11.625 -21 C 13.570312 -21 15.351562 -20.546875 16.96875 -19.640625 C 18.59375 -18.742188 19.875 -17.488281 20.8125 -15.875 C 21.75 -14.257812 22.21875 -12.4375 22.21875 -10.40625 C 22.21875 -8.382812 21.742188 -6.5625 20.796875 -4.9375 C 19.847656 -3.3125 18.566406 -2.046875 16.953125 -1.140625 C 15.347656 -0.242188 13.570312 0.203125 11.625 0.203125 Z M 11.625 -4.390625 C 13.269531 -4.390625 14.585938 -4.941406 15.578125 -6.046875 C 16.578125 -7.148438 17.078125 -8.601562 17.078125 -10.40625 C 17.078125 -12.238281 16.578125 -13.703125 15.578125 -14.796875 C 14.585938 -15.890625 13.269531 -16.4375 11.625 -16.4375 C 9.945312 -16.4375 8.613281 -15.894531 7.625 -14.8125 C 6.632812 -13.726562 6.140625 -12.257812 6.140625 -10.40625 C 6.140625 -8.582031 6.632812 -7.125 7.625 -6.03125 C 8.613281 -4.9375 9.945312 -4.390625 11.625 -4.390625 Z M 11.625 -4.390625 "/></g></g></g><g fill="#000000" fill-opacity="1"><g transform="translate(69.318222, 305.009073)"><g><path d="M 25.28125 -20.703125 L 25.28125 0 L 20.234375 0 L 20.234375 -12.421875 L 15.609375 0 L 11.53125 0 L 6.875 -12.453125 L 6.875 0 L 1.828125 0 L 1.828125 -20.703125 L 7.78125 -20.703125 L 13.59375 -6.375 L 19.359375 -20.703125 Z M 25.28125 -20.703125 "/></g></g></g><g fill="#000000" fill-opacity="1"><g transform="translate(96.395617, 305.009073)"><g><path d="M 6.875 -16.671875 L 6.875 -12.484375 L 13.625 -12.484375 L 13.625 -8.578125 L 6.875 -8.578125 L 6.875 -4.046875 L 14.515625 -4.046875 L 14.515625 0 L 1.828125 0 L 1.828125 -20.703125 L 14.515625 -20.703125 L 14.515625 -16.671875 Z M 6.875 -16.671875 "/></g></g></g><g fill="#000000" fill-opacity="1"><g transform="translate(112.352995, 305.009073)"><g/></g></g><g fill="#000000" fill-opacity="1"><g transform="translate(118.60616, 305.009073)"><g><path d="M 6.875 -20.703125 L 6.875 0 L 1.828125 0 L 1.828125 -20.703125 Z M 6.875 -20.703125 "/></g></g></g><g fill="#000000" fill-opacity="1"><g transform="translate(127.307503, 305.009073)"><g><path d="M 25.28125 -20.703125 L 25.28125 0 L 20.234375 0 L 20.234375 -12.421875 L 15.609375 0 L 11.53125 0 L 6.875 -12.453125 L 6.875 0 L 1.828125 0 L 1.828125 -20.703125 L 7.78125 -20.703125 L 13.59375 -6.375 L 19.359375 -20.703125 Z M 25.28125 -20.703125 "/></g></g></g><g fill="#000000" fill-opacity="1"><g transform="translate(154.384898, 305.009073)"><g><path d="M 17.609375 -14.046875 C 17.609375 -12.847656 17.332031 -11.75 16.78125 -10.75 C 16.226562 -9.757812 15.378906 -8.957031 14.234375 -8.34375 C 13.097656 -7.738281 11.6875 -7.4375 10 -7.4375 L 6.875 -7.4375 L 6.875 0 L 1.828125 0 L 1.828125 -20.703125 L 10 -20.703125 C 11.65625 -20.703125 13.050781 -20.414062 14.1875 -19.84375 C 15.332031 -19.28125 16.1875 -18.492188 16.75 -17.484375 C 17.320312 -16.484375 17.609375 -15.335938 17.609375 -14.046875 Z M 9.609375 -11.453125 C 10.578125 -11.453125 11.296875 -11.675781 11.765625 -12.125 C 12.242188 -12.570312 12.484375 -13.210938 12.484375 -14.046875 C 12.484375 -14.867188 12.242188 -15.503906 11.765625 -15.953125 C 11.296875 -16.410156 10.578125 -16.640625 9.609375 -16.640625 L 6.875 -16.640625 L 6.875 -11.453125 Z M 9.609375 -11.453125 "/></g></g></g><g fill="#000000" fill-opacity="1"><g transform="translate(172.790452, 305.009073)"><g><path d="M 12.390625 0 L 8.078125 -7.8125 L 6.875 -7.8125 L 6.875 0 L 1.828125 0 L 1.828125 -20.703125 L 10.296875 -20.703125 C 11.929688 -20.703125 13.320312 -20.414062 14.46875 -19.84375 C 15.625 -19.28125 16.484375 -18.5 17.046875 -17.5 C 17.617188 -16.507812 17.90625 -15.40625 17.90625 -14.1875 C 17.90625 -12.8125 17.515625 -11.582031 16.734375 -10.5 C 15.960938 -9.414062 14.816406 -8.648438 13.296875 -8.203125 L 18.078125 0 Z M 6.875 -11.390625 L 10 -11.390625 C 10.925781 -11.390625 11.617188 -11.613281 12.078125 -12.0625 C 12.546875 -12.519531 12.78125 -13.160156 12.78125 -13.984375 C 12.78125 -14.765625 12.546875 -15.378906 12.078125 -15.828125 C 11.617188 -16.285156 10.925781 -16.515625 10 -16.515625 L 6.875 -16.515625 Z M 6.875 -11.390625 "/></g></g></g><g fill="#000000" fill-opacity="1"><g transform="translate(192.021893, 305.009073)"><g><path d="M 11.625 0.203125 C 9.675781 0.203125 7.890625 -0.242188 6.265625 -1.140625 C 4.640625 -2.046875 3.347656 -3.3125 2.390625 -4.9375 C 1.441406 -6.5625 0.96875 -8.382812 0.96875 -10.40625 C 0.96875 -12.4375 1.441406 -14.257812 2.390625 -15.875 C 3.347656 -17.488281 4.640625 -18.742188 6.265625 -19.640625 C 7.890625 -20.546875 9.675781 -21 11.625 -21 C 13.570312 -21 15.351562 -20.546875 16.96875 -19.640625 C 18.59375 -18.742188 19.875 -17.488281 20.8125 -15.875 C 21.75 -14.257812 22.21875 -12.4375 22.21875 -10.40625 C 22.21875 -8.382812 21.742188 -6.5625 20.796875 -4.9375 C 19.847656 -3.3125 18.566406 -2.046875 16.953125 -1.140625 C 15.347656 -0.242188 13.570312 0.203125 11.625 0.203125 Z M 11.625 -4.390625 C 13.269531 -4.390625 14.585938 -4.941406 15.578125 -6.046875 C 16.578125 -7.148438 17.078125 -8.601562 17.078125 -10.40625 C 17.078125 -12.238281 16.578125 -13.703125 15.578125 -14.796875 C 14.585938 -15.890625 13.269531 -16.4375 11.625 -16.4375 C 9.945312 -16.4375 8.613281 -15.894531 7.625 -14.8125 C 6.632812 -13.726562 6.140625 -12.257812 6.140625 -10.40625 C 6.140625 -8.582031 6.632812 -7.125 7.625 -6.03125 C 8.613281 -4.9375 9.945312 -4.390625 11.625 -4.390625 Z M 11.625 -4.390625 "/></g></g></g><g fill="#000000" fill-opacity="1"><g transform="translate(215.205801, 305.009073)"><g><path d="M 21.265625 -20.703125 L 13.921875 0 L 7.609375 0 L 0.265625 -20.703125 L 5.640625 -20.703125 L 10.765625 -5.078125 L 15.9375 -20.703125 Z M 21.265625 -20.703125 "/></g></g></g><g fill="#000000" fill-opacity="1"><g transform="translate(236.737938, 305.009073)"><g><path d="M 6.875 -16.671875 L 6.875 -12.484375 L 13.625 -12.484375 L 13.625 -8.578125 L 6.875 -8.578125 L 6.875 -4.046875 L 14.515625 -4.046875 L 14.515625 0 L 1.828125 0 L 1.828125 -20.703125 L 14.515625 -20.703125 L 14.515625 -16.671875 Z M 6.875 -16.671875 "/></g></g></g><g fill="#000000" fill-opacity="1"><g transform="translate(252.695304, 305.009073)"><g><path d="M 25.28125 -20.703125 L 25.28125 0 L 20.234375 0 L 20.234375 -12.421875 L 15.609375 0 L 11.53125 0 L 6.875 -12.453125 L 6.875 0 L 1.828125 0 L 1.828125 -20.703125 L 7.78125 -20.703125 L 13.59375 -6.375 L 19.359375 -20.703125 Z M 25.28125 -20.703125 "/></g></g></g><g fill="#000000" fill-opacity="1"><g transform="translate(279.77271, 305.009073)"><g><path d="M 6.875 -16.671875 L 6.875 -12.484375 L 13.625 -12.484375 L 13.625 -8.578125 L 6.875 -8.578125 L 6.875 -4.046875 L 14.515625 -4.046875 L 14.515625 0 L 1.828125 0 L 1.828125 -20.703125 L 14.515625 -20.703125 L 14.515625 -16.671875 Z M 6.875 -16.671875 "/></g></g></g><g fill="#000000" fill-opacity="1"><g transform="translate(295.730075, 305.009073)"><g><path d="M 20.359375 0 L 15.3125 0 L 6.875 -12.78125 L 6.875 0 L 1.828125 0 L 1.828125 -20.703125 L 6.875 -20.703125 L 15.3125 -7.875 L 15.3125 -20.703125 L 20.359375 -20.703125 Z M 20.359375 0 "/></g></g></g><g fill="#000000" fill-opacity="1"><g transform="translate(317.91115, 305.009073)"><g><path d="M 16.71875 -20.703125 L 16.71875 -16.671875 L 11.234375 -16.671875 L 11.234375 0 L 6.1875 0 L 6.1875 -16.671875 L 0.703125 -16.671875 L 0.703125 -20.703125 Z M 16.71875 -20.703125 "/></g></g></g><g fill="#000000" fill-opacity="1"><g transform="translate(335.343315, 305.009073)"><g><path d="M 9.328125 0.203125 C 7.804688 0.203125 6.445312 -0.0390625 5.25 -0.53125 C 4.050781 -1.019531 3.09375 -1.742188 2.375 -2.703125 C 1.65625 -3.671875 1.273438 -4.832031 1.234375 -6.1875 L 6.609375 -6.1875 C 6.679688 -5.425781 6.941406 -4.84375 7.390625 -4.4375 C 7.847656 -4.03125 8.441406 -3.828125 9.171875 -3.828125 C 9.921875 -3.828125 10.507812 -4 10.9375 -4.34375 C 11.375 -4.695312 11.59375 -5.175781 11.59375 -5.78125 C 11.59375 -6.289062 11.421875 -6.710938 11.078125 -7.046875 C 10.734375 -7.378906 10.3125 -7.65625 9.8125 -7.875 C 9.3125 -8.09375 8.597656 -8.335938 7.671875 -8.609375 C 6.328125 -9.023438 5.234375 -9.4375 4.390625 -9.84375 C 3.546875 -10.257812 2.816406 -10.867188 2.203125 -11.671875 C 1.597656 -12.484375 1.296875 -13.539062 1.296875 -14.84375 C 1.296875 -16.769531 1.992188 -18.273438 3.390625 -19.359375 C 4.785156 -20.453125 6.601562 -21 8.84375 -21 C 11.125 -21 12.960938 -20.453125 14.359375 -19.359375 C 15.765625 -18.273438 16.515625 -16.757812 16.609375 -14.8125 L 11.15625 -14.8125 C 11.113281 -15.476562 10.863281 -16.003906 10.40625 -16.390625 C 9.957031 -16.773438 9.378906 -16.96875 8.671875 -16.96875 C 8.066406 -16.96875 7.578125 -16.800781 7.203125 -16.46875 C 6.828125 -16.144531 6.640625 -15.679688 6.640625 -15.078125 C 6.640625 -14.410156 6.953125 -13.890625 7.578125 -13.515625 C 8.210938 -13.140625 9.195312 -12.734375 10.53125 -12.296875 C 11.863281 -11.847656 12.945312 -11.414062 13.78125 -11 C 14.625 -10.59375 15.347656 -9.992188 15.953125 -9.203125 C 16.566406 -8.421875 16.875 -7.410156 16.875 -6.171875 C 16.875 -4.984375 16.570312 -3.90625 15.96875 -2.9375 C 15.375 -1.976562 14.503906 -1.210938 13.359375 -0.640625 C 12.222656 -0.078125 10.878906 0.203125 9.328125 0.203125 Z M 9.328125 0.203125 "/></g></g></g></svg>